<svg id="Layer_1" data-name="Layer 1" xmlns="http://www.w3.org/2000/svg" viewBox="0 0 191.44 70.54"><defs><style>.cls-1{fill:#fff27b;stroke:#323232;stroke-miterlimit:10;stroke-width:0.5px;}</style></defs><path class="cls-1" d="M25.29,61.66l3-6.64C22.24,52.13,17.13,49,13.89,45.45c5-2.78,8.51-6.72,8.51-14.54a25.42,25.42,0,0,0-.43-4.8H39a27,27,0,0,1,.51,5.43,19.63,19.63,0,0,1-.58,5.16,31.08,31.08,0,0,0-3.29-.24,3.82,3.82,0,0,0-4,4.1c0,1.57.9,3.91,2.89,6.92,3.83,5.82,9.45,11.13,16,16.09h.58L54,57.05c-6-2.85-10.7-5.82-13.79-9A20.44,20.44,0,0,0,44.63,44a22.11,22.11,0,0,0,9.14,2.11A47.19,47.19,0,0,0,59,45.84l-.19,13.51L65,61.15l.55-.39-.16-34.65H75.6l-.15,33.2,6.29,1.84.54-.39-.15-34.65h27.19v3.63h-6.68c-6.76,0-11.92.78-11.92,6.45,0,2.11,1.21,4.37,2.89,6.48,2.42,2.74,4.26,4.65,7.42,4.65,3.56,0,9.22-2.07,10.94-2.07.82,0,1.1.23,1.1.78,0,2.38-3.13,5.74-7.66,7.19a9.49,9.49,0,0,0-7.07-3c-4,0-4.57,1.68-4.57,2.81a8,8,0,0,0,1.76,4.38,6,6,0,0,0,5.27,2.73,19,19,0,0,0,3.4-.27c3.24,7.42,8,10.39,13.75,10.39h.54L121,63c-5.39,0-10-.93-12.82-3.55l0-.16c6.33-1.56,10.2-5.54,10.2-9.49a11.44,11.44,0,0,0-2.15-6.21c-1.88-2.93-3.67-4.57-6.8-4.57-3.36,0-8.86,1.88-11.05,1.88-1.17,0-1.72-.36-1.72-1.29a3.05,3.05,0,0,1,1.76-2.5c1.6-.82,4.92-1.18,9.18-1.18h7.54l.66-.82-.08-9h9.65A8.25,8.25,0,0,0,125,28.3c0,3.71,1.87,6.13,6.37,9.49a7.62,7.62,0,0,0-.94,3.59,9.79,9.79,0,0,0,2.85,6.37c3.56,4.06,7.07,5.66,10.63,5.66a12.94,12.94,0,0,0,6.17-1.68l-.16,7.62,6.21,1.8.55-.39-.16-34.65h18.75a11.66,11.66,0,0,1,.32,3c0,2.89-.59,4.65-1.45,5.78-1.21-.12-3-.16-4.84-.16a4,4,0,0,0-3.68,1.64,4.27,4.27,0,0,0-.66,2.19,10.28,10.28,0,0,0,1.48,4c3.72,6.88,10,13.17,17.93,19.11h.59L188,55c-6.06-2.89-11.17-6.06-14.42-9.57,5-2.78,8.52-6.72,8.52-14.54a25.42,25.42,0,0,0-.43-4.8h9l.55-.74L188.49,20H114.28A9,9,0,0,1,110,13c0-3,2-5.19,5.58-5.19a9.81,9.81,0,0,1,4.57,1.25l.47-.59a36.94,36.94,0,0,0-3-5.39,11.06,11.06,0,0,0-5.39-1.48c-5.27,0-8.55,3.36-8.55,7.65,0,4,2.89,7.35,6.56,10.59l0,.16h-30C74,6.42,71.11.25,63.22.25a30.21,30.21,0,0,0-8.08,1.09l3,7.35h.16a27.05,27.05,0,0,1,7.58-1.1c5.66,0,7.46,4.69,10.31,12.43H.84l-.55.74L3,26.11H15.6a11.66,11.66,0,0,1,.32,3c0,2.89-.59,4.65-1.45,5.78-1.21-.12-3-.16-4.84-.16A4,4,0,0,0,6,36.34a4.2,4.2,0,0,0-.67,2.19,10.17,10.17,0,0,0,1.49,4c3.71,6.88,10,13.17,17.93,19.11ZM138.73,26.11H150V39.59c0,3-1.53,5.07-4.42,6.44a12.2,12.2,0,0,1-5,1.29c-2.34,0-3.9-.62-3.9-2.66,0-2.81,2.61-5.11,8.79-6.79l.23-.35-4.53-5.79a32.12,32.12,0,0,0-7,3,3.38,3.38,0,0,1-2.74-3.32C131.46,29.2,133,26.11,138.73,26.11ZM59,26.11V38.53a28.93,28.93,0,0,1-7,.74,34.55,34.55,0,0,1-6.29-.62,30.76,30.76,0,0,0,.2-4,45.26,45.26,0,0,0-.82-8.52Z"/></svg>